<?xml version="1.0" standalone="no"?><!DOCTYPE svg PUBLIC "-//W3C//DTD SVG 1.1//EN" "http://www.w3.org/Graphics/SVG/1.1/DTD/svg11.dtd"><svg t="1526150539391" class="icon" style="" viewBox="0 0 1024 1024" version="1.1" xmlns="http://www.w3.org/2000/svg" p-id="5856" xmlns:xlink="http://www.w3.org/1999/xlink" width="32" height="32"><defs><style type="text/css"></style></defs><path d="M296.82346667 849.90103704c-23.30168889 0-46.8461037-7.76722963-66.26417778-23.66577778-45.26838518-36.89434075-52.06471111-103.76533333-15.04900741-149.03371851l322.4613926-395.15780741c0.36408889-0.48545185 0.72817778-0.9709037 1.21362962-1.45635556 22.69487408-27.06394075 54.7346963-43.69066667 89.92995555-46.8461037 35.19525925-3.03407408 69.54097778 7.76722963 96.7262815 30.4621037 27.54939259 23.18032592 44.9042963 55.58423703 48.66654814 91.38631111 3.88361482 35.80207408-6.18951111 71.1186963-28.27757037 99.6389926l-246.48817777 317.97096296c-7.03905185 8.98085925-19.90352592 10.67994075-29.00574816 3.64088889-8.98085925-7.03905185-10.67994075-19.90352592-3.64088889-29.00574815L713.46251852 429.98518519c32.16118518-41.50613333 25.85031111-100.36717037-14.32082963-134.10607407-18.6898963-15.65582222-42.35567408-23.05896297-66.50690371-20.9957926-24.27259259 2.06317037-46.23928889 13.59265185-61.8951111 32.16118518-0.24272592 0.36408889-0.48545185 0.60681482-0.84954075 0.97090372L247.42874075 703.29457778c-22.57351111 27.54939259-18.44717037 68.44871111 9.22358517 90.90085926 25.72894815 20.99579259 62.98737778 18.56853333 85.80361483-4.73315555-17.3549037-15.29173333-28.64165925-36.0448-31.7970963-59.22512593-3.51952592-25.48622222 3.15543703-50.85108148 18.6898963-71.48278519l125.85339258-166.02453333c11.28675555-14.92764445 27.67075555-24.63668148 46.23928889-27.30666667 18.44717037-2.66998518 37.0157037 1.94180741 52.06471111 12.98583705 0.72817778 0.60681482 1.45635555 1.09226667 2.18453334 1.69908147 29.24847408 23.42305185 34.10299259 66.26417778 10.67994074 95.51265186L378.86482963 810.45807408c-0.24272592 0.24272592-0.48545185 0.60681482-0.72817778 0.84954074-20.6317037 25.36485925-50.85108148 38.59342222-81.31318518 38.59342222z m214.93380741-343.82127407c-8.98085925 0-17.84035555 4.00497778-23.66577778 11.65084445L362.2381037 683.75514075c-8.8594963 11.77220741-12.74311111 26.2144-10.67994073 40.89931851 1.69908148 12.74311111 7.76722963 24.15122963 16.99081481 32.768l165.66044444-207.4093037c9.22358518-11.52948148 7.28177778-28.39893333-4.2477037-37.50115556-0.24272592-0.24272592-0.60681482-0.48545185-0.84954074-0.72817778-5.21860741-3.88361482-11.40811852-5.70405925-17.3549037-5.70405925z" p-id="5857"></path><path d="M820.26192592 977.33214815H221.94251852c-66.87099259 0-121.36296297-54.49197037-121.36296297-121.36296296V158.13214815c0-66.87099259 54.49197037-121.36296297 121.36296297-121.36296296h372.34157037c25.12213333 0 49.27336297 9.22358518 67.96325926 25.97167407L907.64325925 282.52918519c21.60260741 19.29671111 33.98162963 46.96746667 33.98162964 75.97321481V855.96918519c0 66.87099259-54.49197037 121.36296297-121.36296297 121.36296296zM221.94251852 78.03259259c-44.17611852 0-80.09955555 35.92343703-80.09955555 80.09955556v697.83703704c0 44.17611852 35.92343703 80.09955555 80.09955555 80.09955556h598.3194074c44.17611852 0 80.09955555-35.92343703 80.09955556-80.09955556V358.5024c0-17.23354075-7.40314075-33.7389037-20.14625185-45.26838518L634.69795555 93.44568889c-11.16539259-9.95176297-25.48622222-15.4130963-40.53522963-15.4130963H221.94251852z"  p-id="5858"></path></svg>
