<?xml version="1.0" standalone="no"?><!DOCTYPE svg PUBLIC "-//W3C//DTD SVG 1.1//EN" "http://www.w3.org/Graphics/SVG/1.1/DTD/svg11.dtd"><svg t="1526560268480" class="icon" style="" viewBox="0 0 1024 1024" version="1.1" xmlns="http://www.w3.org/2000/svg" p-id="5423" xmlns:xlink="http://www.w3.org/1999/xlink" width="32" height="32"><defs><style type="text/css"></style></defs><path d="M866.987 259.413c0-6.827 0-6.827 0 0v-13.653l-163.84-143.36c-6.827-6.827-13.653-6.827-20.48-6.827h-471.040c-34.133-6.827-54.613 6.827-54.613 40.96v750.933c0 34.133 13.653 47.787 47.787 47.787h607.573c34.133 0 47.787-13.653 47.787-47.787l6.827-628.053zM716.8 730.453h-409.6c-13.653 0-27.307-13.653-27.307-27.307s13.653-27.307 27.307-27.307h409.6c13.653 0 27.307 13.653 27.307 27.307 0 20.48-13.653 27.307-27.307 27.307zM716.8 587.093h-409.6c-13.653 0-27.307-13.653-27.307-27.307s13.653-27.307 27.307-27.307h409.6c13.653 0 27.307 13.653 27.307 27.307s-13.653 27.307-27.307 27.307zM716.8 430.080h-409.6c-13.653 0-27.307-13.653-27.307-27.307s13.653-27.307 27.307-27.307h409.6c13.653 0 27.307 13.653 27.307 27.307s-13.653 27.307-27.307 27.307zM703.147 232.107v-61.44l61.44 54.613h-61.44v6.827z" p-id="5424"></path></svg>