<?xml version="1.0" standalone="no"?><!DOCTYPE svg PUBLIC "-//W3C//DTD SVG 1.1//EN" "http://www.w3.org/Graphics/SVG/1.1/DTD/svg11.dtd"><svg t="1526310956352" class="icon" style="" viewBox="0 0 1024 1024" version="1.1" xmlns="http://www.w3.org/2000/svg" p-id="21835" xmlns:xlink="http://www.w3.org/1999/xlink" width="32" height="32"><defs><style type="text/css"></style></defs><path d="M512 512m-510 0a510 510 0 1 0 1020 0 510 510 0 1 0-1020 0Z" p-id="21836"></path><path d="M382.2 357.5h26V306h-26v51.5z m233.7 0h26V306h-26v51.5z m-363.5 0c0-28.5 23.2-51.5 51.9-51.5h54.5c5.4-14.9 19.4-25.8 36.3-25.8S426 291 431.4 306h161c5.4-14.9 19.4-25.8 36.3-25.8S659.6 291 665 306h54.5c28.7 0 51.9 23.1 51.9 51.5v25.8h-519v-25.8z m337.5 128.7c0-14.2-11.6-25.8-26-25.8H460.1c-14.3 0-26 11.5-26 25.8 0 14.2 11.6 25.8 26 25.8h71.4l-71.4 141.7c0 7.1 5.8 12.9 13 12.9h26c7.2 0 13-5.8 13-12.9L590 499.2v-13z m129.8 257.6H304.3c-28.7 0-51.9-23.1-51.9-51.5V409h519.3v283.3c-0.1 28.5-23.3 51.5-52 51.5z" fill="#FFFFFF" p-id="21837"></path></svg>
