<?xml version="1.0" standalone="no"?><!DOCTYPE svg PUBLIC "-//W3C//DTD SVG 1.1//EN" "http://www.w3.org/Graphics/SVG/1.1/DTD/svg11.dtd"><svg t="1526469806896" class="icon" style="" viewBox="0 0 1024 1024" version="1.1" xmlns="http://www.w3.org/2000/svg" p-id="3473" xmlns:xlink="http://www.w3.org/1999/xlink" width="32" height="32"><defs><style type="text/css"></style></defs><path d="M512 0C229.12 0 0 229.12 0 512s229.12 512 512 512 512-229.12 512-512S794.88 0 512 0z m170.24 751.36H256c-19.2 0-34.56-15.36-34.56-34.56 3.84-107.52 74.24-195.84 170.24-226.56-40.96-25.6-69.12-71.68-69.12-122.88 0-80.64 65.28-144.64 144.64-144.64 80.64 0 144.64 65.28 144.64 144.64 0 52.48-26.88 97.28-69.12 122.88 96 32 166.4 120.32 170.24 226.56 3.84 0-11.52 34.56-30.72 34.56z m153.6-153.6h-85.76V563.2h85.76v34.56z m0-120.32H648.96v-34.56h188.16v34.56z m0-119.04H665.6v-34.56h170.24V358.4z"  p-id="3474"></path><path d="M469.76 367.36m-111.36 0a111.36 111.36 0 1 0 222.72 0 111.36 111.36 0 1 0-222.72 0Z"  p-id="3475"></path><path d="M256 716.8h426.24c-5.12-113.92-98.56-204.8-212.48-204.8-115.2 0-208.64 90.88-213.76 204.8z" p-id="3476"></path></svg>
