<?xml version="1.0" standalone="no"?><!DOCTYPE svg PUBLIC "-//W3C//DTD SVG 1.1//EN" "http://www.w3.org/Graphics/SVG/1.1/DTD/svg11.dtd"><svg t="1526309084517" class="icon" style="" viewBox="0 0 1024 1024" version="1.1" xmlns="http://www.w3.org/2000/svg" p-id="3543" xmlns:xlink="http://www.w3.org/1999/xlink" width="32" height="32"><defs><style type="text/css"></style></defs><path d="M512 512m-512 0a512 512 0 1 0 1024 0 512 512 0 1 0-1024 0Z"  p-id="3544"></path><path d="M658.285714 268.190476v121.904762h97.52381v341.333333c0 26.819048-21.942857 48.761905-48.761905 48.761905H341.333333c-26.819048 0-48.761905-21.942857-48.761904-48.761905V316.952381c0-26.819048 21.942857-48.761905 48.761904-48.761905h316.952381z" fill="#EAF2FC" p-id="3545"></path><path d="M672.914286 604.647619c0-26.819048-21.942857-43.885714-43.885715-43.885714-26.819048 0-43.885714 21.942857-43.885714 43.885714 0 12.190476 4.87619 21.942857 12.190476 31.695238v43.885714c0 4.87619 4.87619 9.752381 9.752381 4.876191l21.942857-26.819048 21.942858 26.819048c4.87619 4.87619 9.752381 0 9.752381-4.876191v-43.885714c2.438095-4.87619 12.190476-19.504762 12.190476-31.695238z"  p-id="3546"></path><path d="M755.809524 390.095238l-97.52381-121.904762v121.904762z" fill="#FFFFFF" p-id="3547"></path><path d="M377.904762 585.142857c-7.314286 0-12.190476-4.87619-12.190476-12.190476s4.87619-12.190476 12.190476-12.190476h146.285714c7.314286 0 12.190476 4.87619 12.190476 12.190476s-4.87619 12.190476-12.190476 12.190476h-146.285714zM390.095238 475.428571c-7.314286 0-12.190476-4.87619-12.190476-12.190476s4.87619-12.190476 12.190476-12.190476h292.571429c7.314286 0 12.190476 4.87619 12.190476 12.190476s-4.87619 12.190476-12.190476 12.190476H390.095238zM377.904762 682.666667c-7.314286 0-12.190476-4.87619-12.190476-12.190477s4.87619-12.190476 12.190476-12.190476h146.285714c7.314286 0 12.190476 4.87619 12.190476 12.190476s-4.87619 12.190476-12.190476 12.190477h-146.285714z"  p-id="3548"></path></svg>
