<?xml version="1.0" standalone="no"?><!DOCTYPE svg PUBLIC "-//W3C//DTD SVG 1.1//EN" "http://www.w3.org/Graphics/SVG/1.1/DTD/svg11.dtd"><svg t="1526311083734" class="icon" style="" viewBox="0 0 1024 1024" version="1.1" xmlns="http://www.w3.org/2000/svg" p-id="24334" xmlns:xlink="http://www.w3.org/1999/xlink" width="32" height="32"><defs><style type="text/css"></style></defs><path d="M512 512m-511.521032 0a511.521032 511.521032 0 1 0 1023.042064 0 511.521032 511.521032 0 1 0-1023.042064 0Z" p-id="24335"></path><path d="M592.16929 383.372387a121.789935 121.789935 0 1 1-243.579871 0 121.789935 121.789935 0 0 1 243.579871 0zM661.966452 702.876903c-2.361806 56.782452-85.80129 59.524129-191.636646 59.524129-105.835355 0-191.587097-2.758194-191.587096-59.507613 0-82.795355 68.112516-183.461161 191.603613-184.551225 113.251097 1.073548 191.620129 100.05471 191.620129 182.833548v1.701161zM745.25729 459.363097a17.507097 17.507097 0 0 1-17.49058 17.474064H635.870968a17.474065 17.474065 0 0 1-17.490581-17.474064v-2.857291c0-9.645419 7.812129-17.474065 17.490581-17.474064h91.895742a17.507097 17.507097 0 0 1 17.49058 17.474064v2.857291zM745.25729 534.957419c0 9.661935-7.845161 17.474065-17.49058 17.474065h-66.576516a17.457548 17.457548 0 0 1-17.490581-17.474065v-2.824258c0-9.661935 7.812129-17.490581 17.490581-17.49058h66.576516a17.507097 17.507097 0 0 1 17.49058 17.49058v2.824258zM745.25729 610.551742a17.507097 17.507097 0 0 1-17.49058 17.490581h-41.059097a17.490581 17.490581 0 0 1-17.490581-17.490581v-2.840774c0-9.645419 7.812129-17.490581 17.490581-17.490581h41.059097a17.507097 17.507097 0 0 1 17.49058 17.490581v2.840774z" fill="#FFFFFF" p-id="24336"></path></svg>
