<?xml version="1.0" standalone="no"?><!DOCTYPE svg PUBLIC "-//W3C//DTD SVG 1.1//EN" "http://www.w3.org/Graphics/SVG/1.1/DTD/svg11.dtd"><svg t="1526470561092" class="icon" style="" viewBox="0 0 1024 1024" version="1.1" xmlns="http://www.w3.org/2000/svg" p-id="7091" xmlns:xlink="http://www.w3.org/1999/xlink" width="32" height="32"><defs><style type="text/css"></style></defs><path d="M512 0C229.003636 0 0 229.003636 0 512s229.003636 512 512 512 512-229.003636 512-512S794.996364 0 512 0z m51.2 234.589091c101.469091 0 184.32 83.781818 184.32 184.32s-83.781818 184.32-184.32 184.32c-101.469091 0-184.32-87.505455-184.32-188.043636s83.781818-180.596364 184.32-180.596364zM794.065455 623.709091L588.334545 777.309091c-34.443636 20.48-80.058182 0-80.058181 0s-118.225455-55.854545-170.356364-55.854546c-52.130909 0-90.298182 45.614545-90.298182 45.614546v-0.930909c-0.930909 11.170909-10.24 19.549091-20.48 19.549091-11.170909 0-20.48-9.309091-20.48-20.48v-186.181818c0-11.170909 9.309091-20.48 20.48-20.48 11.170909 0 20.48 9.309091 20.48 20.48v10.24c0.930909-0.930909 21.410909-11.170909 41.890909-24.203637 48.407273-31.650909 90.298182-6.516364 90.298182-6.516363s45.614545 34.443636 107.985455 69.818181c62.370909 38.167273 107.985455 24.203636 107.985454 24.203637 24.203636 0 156.392727-97.745455 188.043637-80.058182 26.996364 13.032727 23.272727 44.683636 10.24 51.2z" p-id="7092"></path><path d="M504.552727 310.923636l62.370909 83.781819 62.370909-83.781819h34.443637l-76.334546 104.261819h55.854546c3.723636 0 3.723636 3.723636 3.723636 3.723636v10.24c0 3.723636-3.723636 3.723636-3.723636 3.723636H577.163636v24.203637h62.370909c3.723636 0 3.723636 3.723636 3.723637 3.723636V474.763636c0 3.723636-3.723636 3.723636-3.723637 3.723637H577.163636v38.167272c0 3.723636-3.723636 3.723636-6.516363 3.723637h-13.963637c-3.723636 0-6.516364-3.723636-6.516363-3.723637v-38.167272h-59.578182c-3.723636 0-3.723636 0-3.723636-3.723637v-10.24c0-3.723636 3.723636-3.723636 3.723636-3.723636h62.370909v-27.927273h-62.370909c-3.723636 0-3.723636-3.723636-3.723636-3.723636V418.909091c0-3.723636 3.723636-3.723636 3.723636-3.723636h55.854545l-76.334545-104.261819h34.443636z" p-id="7093"></path></svg>
