<?xml version="1.0" standalone="no"?><!DOCTYPE svg PUBLIC "-//W3C//DTD SVG 1.1//EN" "http://www.w3.org/Graphics/SVG/1.1/DTD/svg11.dtd"><svg t="1526310506506" class="icon" style="" viewBox="0 0 1024 1024" version="1.1" xmlns="http://www.w3.org/2000/svg" p-id="5248" xmlns:xlink="http://www.w3.org/1999/xlink" width="32" height="32"><defs><style type="text/css"></style></defs><path d="M512.363355 512m-511.504516 0a511.504516 511.504516 0 1 0 1023.009032 0 511.504516 511.504516 0 1 0-1023.009032 0Z"  p-id="5249"></path><path d="M775.481806 416.685419v-0.363354h-0.198193l-19.621161-36.021678-56.716387-104.051613c-6.606452-12.089806-23.287742-21.982968-37.062194-21.982968l-305.085936 0.363355c-13.807484 0.016516-30.174968 10.107871-36.385032 22.395871l-59.870968 118.288516-10.950193 21.669162h-0.363355a54.189419 54.189419 0 0 0 108.411871 0.198193h0.132129a14.220387 14.220387 0 0 1 15.376516-14.154322 14.187355 14.187355 0 0 1 15.36 13.774451h-0.198193a54.205935 54.205935 0 0 0 108.428387 0.198194h0.429419a14.203871 14.203871 0 0 1 14.187355-14.220387l1.106581 0.049548c0.363355 0 0.72671-0.049548 1.10658-0.049548a14.203871 14.203871 0 0 1 14.220387 14.187355h0.445936a54.238968 54.238968 0 0 0 54.272 53.809548 54.238968 54.238968 0 0 0 54.156387-54.305032h-0.198194a14.203871 14.203871 0 0 1 15.310452-13.807484 14.203871 14.203871 0 0 1 15.376516 13.60929h-0.198193a54.172903 54.172903 0 1 0 108.411871 0.396387v0.016516h0.115612z" fill="#FFFFFF" p-id="5250"></path><path d="M651.974194 461.394581a82.828387 82.828387 0 0 1-69.681549 38.300903 82.745806 82.745806 0 0 1-69.698064-38.053161 82.778839 82.778839 0 0 1-69.598968 38.218322 82.861419 82.861419 0 0 1-69.780645-38.119226 83.026581 83.026581 0 0 1-52.488258 36.467613l0.313806 246.48671a25.170581 25.170581 0 0 0 25.104516 25.054968l333.493678-0.42942a25.154065 25.154065 0 0 0 25.038451-25.121032l-0.330322-246.503226a82.877935 82.877935 0 0 1-52.372645-36.302451z m-66.675613 191.57058c11.577806 0 17.358452 4.723613 17.358451 14.170839-1.040516 7.366194-6.837677 11.594323-17.358451 12.634839h-55.229936v46.905806c0 10.520774-5.797161 15.772903-17.358451 15.772903-11.577806 0-17.358452-5.252129-17.358452-15.772903v-46.905806h-55.229936c-10.53729-1.040516-16.317935-5.252129-17.358451-12.634839 0-9.447226 5.764129-14.170839 17.358451-14.170839h55.229936v-28.424258h-55.229936c-10.53729-1.040516-16.317935-5.252129-17.358451-12.618322 0-9.480258 5.764129-14.203871 17.358451-14.203871h37.888l-28.176516-44.213678c0-1.040516-0.528516-2.097548-1.569032-3.15458a58.979097 58.979097 0 0 1-4.740129-12.634839c1.040516-8.40671 5.780645-13.146839 14.203871-14.203871 8.423226 0 14.715871 3.716129 18.927484 11.065806l36.038193 53.67742 36.550194-54.684903c4.195097-7.349677 10.487742-11.032774 18.927484-11.032775 8.423226 1.040516 13.130323 5.813677 14.187355 14.187355 0 2.130581-1.585548 6.325677-4.740129 12.618323-1.040516 1.057032-1.585548 2.130581-1.585549 3.15458l-28.638967 45.204646h37.871483c11.577806 0 17.358452 4.723613 17.358452 14.203871-1.040516 7.349677-6.837677 11.56129-17.358452 12.618322h-55.229935v28.424258h55.262968v0.016516z" fill="#FFFFFF" p-id="5251"></path></svg>
