<?xml version="1.0" standalone="no"?><!DOCTYPE svg PUBLIC "-//W3C//DTD SVG 1.1//EN" "http://www.w3.org/Graphics/SVG/1.1/DTD/svg11.dtd"><svg t="1526149687770" class="icon" style="" viewBox="0 0 1024 1024" version="1.1" xmlns="http://www.w3.org/2000/svg" p-id="4861" xmlns:xlink="http://www.w3.org/1999/xlink" width="32" height="32"><defs><style type="text/css"></style></defs><path d="M512 0C228.693333 0 0 228.693333 0 512s228.693333 512 512 512 512-228.693333 512-512S795.306667 0 512 0z" p-id="4862"></path><path d="M512 576.853333c-18.773333 0-34.133333-15.36-34.133333-34.133333v-238.933333c0-18.773333 15.36-34.133333 34.133333-34.133334s34.133333 15.36 34.133333 34.133334v238.933333c0 18.773333-15.36 34.133333-34.133333 34.133333z" fill="#FFFFFF" p-id="4863"></path><path d="M535.893333 617.813333c-13.653333 13.653333-35.84 13.653333-47.786666 0l-121.173334-121.173333c-13.653333-13.653333-13.653333-35.84 0-47.786667 13.653333-13.653333 35.84-13.653333 47.786667 0l121.173333 121.173334c13.653333 13.653333 13.653333 35.84 0 47.786666z" fill="#FFFFFF" p-id="4864"></path><path d="M488.106667 617.813333c-13.653333-13.653333-13.653333-35.84 0-47.786666l121.173333-121.173334c13.653333-13.653333 35.84-13.653333 47.786667 0 13.653333 13.653333 13.653333 35.84 0 47.786667l-121.173334 121.173333c-13.653333 13.653333-34.133333 13.653333-47.786666 0zM290.133333 730.453333c-18.773333 0-34.133333-15.36-34.133333-34.133333v-119.466667c0-18.773333 15.36-34.133333 34.133333-34.133333s34.133333 15.36 34.133334 34.133333v119.466667c0 18.773333-15.36 34.133333-34.133334 34.133333zM733.866667 730.453333c-18.773333 0-34.133333-15.36-34.133334-34.133333v-119.466667c0-18.773333 15.36-34.133333 34.133334-34.133333s34.133333 15.36 34.133333 34.133333v119.466667c0 18.773333-15.36 34.133333-34.133333 34.133333z" fill="#FFFFFF" p-id="4865"></path><path d="M768 699.733333c0 18.773333-15.36 34.133333-34.133333 34.133334H290.133333c-18.773333 0-34.133333-15.36-34.133333-34.133334s15.36-34.133333 34.133333-34.133333h443.733334c18.773333 0 34.133333 15.36 34.133333 34.133333z" fill="#FFFFFF" p-id="4866"></path></svg>
