<?xml version="1.0" standalone="no"?><!DOCTYPE svg PUBLIC "-//W3C//DTD SVG 1.1//EN" "http://www.w3.org/Graphics/SVG/1.1/DTD/svg11.dtd"><svg t="1525797834914" class="icon" style="" viewBox="0 0 1024 1024" version="1.1" xmlns="http://www.w3.org/2000/svg" p-id="3097" xmlns:xlink="http://www.w3.org/1999/xlink" width="32" height="32"><defs><style type="text/css"></style></defs><path d="M244.112548 218.69506h46.654946v14.199331H244.112548z"  p-id="3098"></path><path d="M260.847474 199.551319h13.185094V253.55949h-13.185094V199.551319zM874.20788 19.143741h46.654946v14.072552h-46.908505l0.253559-14.072552z m0 0" p-id="3099"></path><path d="M890.689247 0h13.185094v54.008171H890.689247V0z m170.391977 331.782593h46.654947v14.072551h-46.654947v-14.072551z m0 0" p-id="3100"></path><path d="M1077.816151 312.512071H1091.001244v54.008172h-13.185093V312.512071zM350.987873 849.93141V292.354092c0-44.119351 32.709174-80.124799 72.771574-80.124799h507.245759c40.062399 0 72.771574 35.878668 72.771574 80.124799v557.577318h13.185093V292.354092c0-51.979695-38.667822-94.197351-86.083447-94.197351h-507.118979c-47.415625 0-86.083447 42.217655-86.083447 94.197351v557.577318h13.311873z m0 0"  p-id="3101"></path><path d="M344.395326 365.125665H1013.6656v14.072552H344.395326zM458.623876 292.227312c0-14.199331-8.747802-27.004086-21.932895-32.328835-13.311873-5.19797-28.398663-1.774916-38.160704 8.621023-9.76204 10.395939-12.170856 25.736288-6.085427 38.541042 6.085428 12.931534 19.397301 20.791878 33.596632 19.77764 18.636623-0.507119 33.216293-15.974248 32.582394-34.61087zM431.366231 311.497833c-7.860344 3.042714-16.861706 1.014238-22.566794-5.197969-5.705089-6.212208-7.099666-15.213569-3.549833-22.947134 3.676613-7.606785 11.536957-12.297635 20.031199-11.663737 10.903058 0.380339 19.524081 9.635261 19.143742 20.538319 0 8.621023-5.19797 16.227807-13.058314 19.270521zM539.255794 292.227312c0-14.199331-8.747802-27.004086-21.932896-32.328835-13.311873-5.19797-28.398663-1.774916-38.160703 8.621023-9.76204 10.395939-12.170856 25.736288-6.085428 38.541042 6.085428 12.931534 19.397301 20.791878 33.596633 19.77764 18.636623-0.507119 33.089513-15.974248 32.582394-34.61087z m-27.257645 19.270521c-7.860344 3.169494-16.861706 1.141018-22.566795-5.071189-5.831868-6.212208-7.226445-15.213569-3.549832-22.820355 3.549833-7.606785 11.536957-12.297635 19.90442-11.790516 11.029838 0.380339 19.524081 9.508481 19.270521 20.538319 0 8.367463-5.19797 15.974248-13.058314 19.143741zM618.746694 292.354092c0-14.326111-8.747802-27.130865-22.059675-32.328835-13.311873-5.19797-28.398663-1.901696-38.160704 8.621023-9.76204 10.395939-12.170856 25.736288-6.085427 38.667822s19.524081 20.791878 33.723412 19.77764c8.874582-0.253559 17.368825-4.183732 23.454253-10.649499 6.085428-6.592547 9.381701-15.213569 9.128141-24.088151zM591.489049 311.497833c-7.860344 3.042714-16.861706 1.014238-22.566794-5.071189-5.831868-6.212208-7.226445-15.213569-3.549833-22.947134 3.676613-7.606785 11.536957-12.297635 20.031199-11.663737v-0.12678c5.324749 0.253559 10.269159 2.535595 13.818993 6.338988 3.549833 3.930172 5.451529 9.001362 5.324749 14.326111-0.12678 8.494243-5.19797 16.101028-13.058314 19.143741zM683.657924 289.945277h236.571004v14.199331H683.657924zM537.354098 619.445834c0 20.157979 13.945772 36.512567 31.187817 36.512566 17.242045 0 31.187817-16.354587 31.187818-36.512566s-13.945772-36.512567-31.187818-36.512567c-17.242045 0-31.187817 16.354587-31.187817 36.512567zM749.076272 625.911601c0 20.157979 13.945772 36.512567 31.187817 36.512566 17.242045 0 31.187817-16.354587 31.187818-36.512566s-13.945772-36.512567-31.187818-36.512567c-17.242045 0-31.187817 16.481367-31.187817 36.512567zM565.118862 804.924601l-9.381701-10.0156c72.391234-77.208865 189.282159-77.969543 260.659156-1.648137l-9.381701 10.0156c-66.179027-70.743098-174.702489-69.982419-241.895754 1.648137zM1146.023654 902.925344c-92.929553-26.877306-199.931658 0.380339-283.60629 74.673269h21.298997c79.36412-64.023771 177.364863-86.083447 262.307293-59.966819v-14.70645zM428.703857 967.583013h17.875944c-22.693574-27.891544-50.458338-51.345797-81.646156-69.22174-72.137675-41.330197-158.728241-52.993933-243.924229-32.328835l2.915934 13.818992c82.026495-19.90442 165.320787-9.001362 234.669308 30.934258 26.243407 15.08679 49.95122 34.230531 70.109199 56.797325z"  p-id="3102"></path><path d="M605.434821 992.051504C573.232766 939.43791 500.461192 929.041971 443.790646 968.597251l-7.226445-11.790516c63.009533-43.992571 143.768231-31.568156 180.027238 27.511205l-11.156618 7.733564z"  p-id="3103"></path><path d="M608.477535 992.558623l-8.621023-10.649498c89.37972-83.040733 212.356073-88.872601 274.224589-13.058314l-10.0156 9.254921c-56.924105-69.855639-171.659775-63.389872-255.587966 14.452891zM398.910617 1009.927448h7.987123c-10.14238-12.424415-22.440015-22.820354-36.385786-30.807478C337.54922 960.483348 298.627838 955.412158 261.861712 964.793859l1.267798 6.085428c35.371549-9.001362 72.771574-4.056952 104.46651 13.818992 11.790516 6.592547 22.313235 15.213569 31.314597 25.229169z m0 0"  p-id="3104"></path><path d="M479.415755 1024c-7.226445-11.790516-19.270521-19.65086-32.962734-21.425777-15.08679-2.028476-30.300359 1.901696-42.597994 10.776278l-7.226446-11.790516c14.96001-10.776278 33.469853-15.467129 51.726136-12.931534 17.622385 2.408815 33.089513 12.551195 42.344435 27.637985l-11.156618 7.733564h-0.126779z m0 0"  p-id="3105"></path><path d="M398.530277 1003.588461h8.113904c-10.14238-12.424415-22.440015-22.820354-36.385787-30.807478-32.962734-18.636623-71.884115-23.707812-108.650241-14.326111l1.267797 6.085428c35.371549-9.001362 72.771574-4.056952 104.46651 13.818992 11.790516 6.719326 22.186455 15.213569 31.187817 25.229169z m603.978705-59.71326c-33.596632-1.521357-72.518014 15.593909-103.452272 48.936982l9.381701 9.88882c28.018324-30.300359 63.009533-46.021047 92.675994-44.88003l1.394577-13.945772z m0 0"  p-id="3106"></path></svg>
